<svg width="24" height="24" viewBox="0 0 24 24" fill="none" xmlns="http://www.w3.org/2000/svg">
<g clip-path="url(#clip0)">
<path d="M17 17.5C17 17.8978 16.842 18.2794 16.5607 18.5607C16.2794 18.842 15.8978 19 15.5 19H8.5C8.10218 19 7.72064 18.842 7.43934 18.5607C7.15804 18.2794 7 17.8978 7 17.5C7 17.1022 7.15804 16.7207 7.43934 16.4394C7.72064 16.1581 8.10218 16 8.5 16H15.5C15.8978 16 16.2794 16.1581 16.5607 16.4394C16.842 16.7207 17 17.1022 17 17.5V17.5ZM22 7.15702V18.5C21.9984 19.9582 21.4184 21.3562 20.3873 22.3874C19.3562 23.4185 17.9582 23.9984 16.5 24H7.5C6.0418 23.9984 4.64377 23.4185 3.61267 22.3874C2.58156 21.3562 2.00159 19.9582 2 18.5V5.50002C2.00159 4.04182 2.58156 2.64379 3.61267 1.61269C4.64377 0.581581 6.0418 0.00160807 7.5 1.99011e-05H14.843C15.5656 -0.00193016 16.2813 0.139451 16.9489 0.415979C17.6164 0.692507 18.2225 1.09869 18.732 1.61102L20.389 3.26802C20.9013 3.77754 21.3075 4.38361 21.584 5.05115C21.8606 5.7187 22.002 6.43447 22 7.15702V7.15702ZM18.985 7.00002H17C16.4696 7.00002 15.9609 6.78931 15.5858 6.41423C15.2107 6.03916 15 5.53045 15 5.00002V3.01602C14.947 3.01202 7.5 3.00002 7.5 3.00002C6.83696 3.00002 6.20107 3.26341 5.73223 3.73225C5.26339 4.20109 5 4.83698 5 5.50002V18.5C5 19.1631 5.26339 19.7989 5.73223 20.2678C6.20107 20.7366 6.83696 21 7.5 21H16.5C17.163 21 17.7989 20.7366 18.2678 20.2678C18.7366 19.7989 19 19.1631 19 18.5C19 18.5 18.988 7.05302 18.985 7.00002ZM14.5 9.00002H9.5C8.83696 9.00002 8.20107 9.26341 7.73223 9.73225C7.26339 10.2011 7 10.837 7 11.5C7 12.1631 7.26339 12.7989 7.73223 13.2678C8.20107 13.7366 8.83696 14 9.5 14H14.5C15.163 14 15.7989 13.7366 16.2678 13.2678C16.7366 12.7989 17 12.1631 17 11.5C17 10.837 16.7366 10.2011 16.2678 9.73225C15.7989 9.26341 15.163 9.00002 14.5 9.00002V9.00002Z" fill="white"/>
</g>
<defs>
<clipPath id="clip0">
<rect width="24" height="24" fill="white"/>
</clipPath>
</defs>
</svg>
