<svg width="24" height="24" viewBox="0 0 24 24" fill="none" xmlns="http://www.w3.org/2000/svg">
<g clip-path="url(#clip0)">
<path d="M15 7.49999C15 7.20332 15.088 6.91331 15.2528 6.66664C15.4176 6.41996 15.6519 6.2277 15.926 6.11417C16.2001 6.00064 16.5017 5.97094 16.7926 6.02881C17.0836 6.08669 17.3509 6.22955 17.5607 6.43933C17.7704 6.64911 17.9133 6.91638 17.9712 7.20736C18.0291 7.49833 17.9993 7.79993 17.8858 8.07402C17.7723 8.34811 17.58 8.58237 17.3334 8.7472C17.0867 8.91202 16.7967 8.99999 16.5 8.99999C16.1022 8.99999 15.7206 8.84196 15.4393 8.56065C15.158 8.27935 15 7.89782 15 7.49999ZM13.5 12C13.7967 12 14.0867 11.912 14.3334 11.7472C14.58 11.5824 14.7723 11.3481 14.8858 11.074C14.9994 10.7999 15.0291 10.4983 14.9712 10.2074C14.9133 9.91638 14.7704 9.64911 14.5607 9.43933C14.3509 9.22955 14.0836 9.08669 13.7926 9.02881C13.5017 8.97094 13.2001 9.00064 12.926 9.11417C12.6519 9.2277 12.4176 9.41996 12.2528 9.66664C12.088 9.91331 12 10.2033 12 10.5C12 10.8978 12.158 11.2793 12.4393 11.5607C12.7206 11.842 13.1022 12 13.5 12ZM10.5 15C10.7967 15 11.0867 14.912 11.3334 14.7472C11.58 14.5824 11.7723 14.3481 11.8858 14.074C11.9994 13.7999 12.0291 13.4983 11.9712 13.2074C11.9133 12.9164 11.7704 12.6491 11.5607 12.4393C11.3509 12.2296 11.0836 12.0867 10.7926 12.0288C10.5017 11.9709 10.2001 12.0006 9.92597 12.1142C9.65189 12.2277 9.41762 12.42 9.2528 12.6666C9.08797 12.9133 9 13.2033 9 13.5C9 13.8978 9.15804 14.2793 9.43934 14.5607C9.72064 14.842 10.1022 15 10.5 15ZM23.841 3.55299L23.766 3.76199C22.112 8.35099 20.532 12.687 16.891 16.453C16.6205 19.0322 15.4525 21.4344 13.591 23.24C13.0809 23.7256 12.4043 23.9975 11.7 24C11.3454 24 10.9943 23.9302 10.6668 23.7945C10.3392 23.6588 10.0415 23.4599 9.79081 23.2092C9.54009 22.9585 9.34121 22.6608 9.20553 22.3332C9.06984 22.0057 9 21.6546 9 21.3V19.669C8.41262 19.4534 7.86842 19.1348 7.393 18.728L5.561 20.561C5.27961 20.8424 4.89795 21.0005 4.5 21.0005C4.10205 21.0005 3.72039 20.8424 3.439 20.561C3.15761 20.2796 2.99952 19.8979 2.99952 19.5C2.99952 19.102 3.15761 18.7204 3.439 18.439L5.273 16.605C4.66022 15.8577 4.26418 14.9567 4.128 14H2.7C1.98392 14 1.29716 13.7155 0.790812 13.2092C0.284464 12.7028 0 12.0161 0 11.3C0.00276315 10.5961 0.274676 9.91987 0.76 9.40999C1.80125 8.34615 3.04263 7.49876 4.41269 6.91662C5.78276 6.33448 7.25443 6.02907 8.743 6.01799C12.219 3.12499 16.129 1.71799 20.243 0.233992L20.451 0.158992C20.9246 -0.0116542 21.4369 -0.0439978 21.9282 0.0657406C22.4195 0.175479 22.8693 0.422767 23.2253 0.778706C23.5812 1.13465 23.8285 1.58454 23.9383 2.0758C24.048 2.56707 24.0156 3.07942 23.845 3.55299H23.841ZM20.768 3.23199C16.412 4.80499 12.635 6.23999 9.4 9.47199C8.71144 10.2493 8.06997 11.0671 7.479 11.921C7.1642 12.3686 7.01774 12.913 7.06549 13.4582C7.11325 14.0033 7.35216 14.514 7.74 14.9L9.164 16.32C9.55022 16.7066 10.0605 16.9445 10.605 16.9917C11.1494 17.0389 11.693 16.8924 12.14 16.578C12.9928 15.9904 13.7919 15.3285 14.528 14.6C17.76 11.365 19.2 7.58799 20.768 3.23199Z" fill="#374957"/>
</g>
<defs>
<clipPath id="clip0">
<rect width="24" height="24" fill="white"/>
</clipPath>
</defs>
</svg>
